HIERARCHY
ROOT Hips
{
  OFFSET 7.333 -26.027 -164.856
  CHANNELS 6 Xposition Yposition Zposition Zrotation Xrotation Yrotation
  JOINT LeftUpLeg
  {
    OFFSET 10.092 0.000 0.000
    CHANNELS 3 Zrotation Xrotation Yrotation
    JOINT LeftLeg
    {
      OFFSET 0.000 -38.160 -0.000
    CHANNELS 3 Zrotation Xrotation Yrotation
      JOINT LeftFoot
      {
        OFFSET -0.000 -24.040 0.000
    CHANNELS 3 Zrotation Xrotation Yrotation
        End Site
        {
          OFFSET -0.000 0.000 12.945
        }
      }
    }
  }
  JOINT RightUpLeg
  {
    OFFSET -10.092 -0.000 0.000
    CHANNELS 3 Zrotation Xrotation Yrotation
    JOINT RightLeg
    {
      OFFSET 0.000 -33.046 0.000
    CHANNELS 3 Zrotation Xrotation Yrotation
      JOINT RightFoot
      {
        OFFSET 0.000 -22.031 -0.000
    CHANNELS 3 Zrotation Xrotation Yrotation
        End Site
        {
          OFFSET 0.000 -0.000 11.863
        }
      }
    }
  }
  JOINT Spine
  {
    OFFSET -0.000 16.511 0.000
    CHANNELS 3 Zrotation Xrotation Yrotation
    JOINT LeftShoulder
    {
      OFFSET 0 16.511 0
    CHANNELS 3 Zrotation Xrotation Yrotation
      JOINT LeftArm
      {
        OFFSET 16.337 0.000 0.000
    CHANNELS 3 Zrotation Xrotation Yrotation
        JOINT LeftForeArm
        {
          OFFSET 0.000 -24.030 0.000
    CHANNELS 3 Zrotation Xrotation Yrotation
          JOINT LeftHand
          {
            OFFSET 0.000 -17.629 -0.000
    CHANNELS 3 Zrotation Xrotation Yrotation
            End Site
            {
              OFFSET 0.000 -11.753 -0.000
            }
          }
        }
      }
    }
    JOINT RightShoulder
    {
      OFFSET 0 16.511 0
    CHANNELS 3 Zrotation Xrotation Yrotation
      JOINT RightArm
      {
        OFFSET -16.337 0.000 0.000
    CHANNELS 3 Zrotation Xrotation Yrotation
        JOINT RightForeArm
        {
          OFFSET -0.000 -19.534 0.000
    CHANNELS 3 Zrotation Xrotation Yrotation
          JOINT RightHand
          {
            OFFSET 0.000 -19.514 -0.000
    CHANNELS 3 Zrotation Xrotation Yrotation
            End Site
            {
              OFFSET 0.000 -13.010 -0.000
            }
          }
        }
      }
    }
    JOINT Neck
    {
      OFFSET -0.000 16.511 0.000
    CHANNELS 3 Zrotation Xrotation Yrotation
      JOINT Head
      {
        OFFSET -0.000 12.493 -0.000
    CHANNELS 3 Zrotation Xrotation Yrotation
        End Site
        {
          OFFSET -0.000 8.328 -0.000
        }
      }
    }
  }
}
MOTION
Frames: 15
Frame Time: 0.0333333
0 0 0 -8.071030e-01 -1.747620e+00 -1.881790e+01 -2.548680e+00 1.788550e+01 7.832050e-01 8.478730e+00 -2.206670e+01 2.281430e+00 0 0 0 -3.991390e-01 1.431780e+01 9.870800e-02 5.009040e+00 -1.625100e+01 1.296120e+00 0 0 -1.000000e-06 0 0 5.000000e-06 0 0 0 1.169810e+01 -2.656170e+01 -6.124380e+01 1.307940e+02 -4.590570e+01 1.355530e+02 0 -1.000000e-06 0 0 0 0 7.580510e+00 -3.769430e+01 1.031810e+02 -1.057710e+02 -3.749360e+01 -1.205610e+02 0 6.617445e-24 0 2.006710e-01 -1.811520e+00 6.344000e-03 0 0 -1.000000e-06 
0 0 0 -8.704150e-01 -2.328130e+00 -1.637940e+01 -1.506320e+00 1.770510e+01 4.581910e-01 6.702160e+00 -2.088400e+01 1.882270e+00 0 0 1.000000e-06 -5.135800e-02 1.538000e+01 1.361800e-02 4.790500e+00 -1.610650e+01 1.318040e+00 0 0 1.000000e-06 0 0 0 0 0 0 6.928310e+00 -3.154730e+01 -7.527880e+01 1.193670e+02 -3.846700e+01 1.268870e+02 -1.000000e-06 1.000000e-06 0 0 0 0 6.972690e+00 -3.643170e+01 1.022480e+02 -1.058060e+02 -3.530670e+01 -1.217740e+02 0 6.617445e-24 0 1.893030e-01 -1.966090e+00 6.496000e-03 0 0 -1.000000e-06 
0 0 0 -6.348391e-01 -1.742695e+00 -1.735723e+01 -2.273588e+00 1.674385e+01 6.553990e-01 7.890230e+00 -2.041280e+01 1.998300e+00 0 1.619708e-08 -6.858682e-08 -4.364910e-01 1.488144e+01 1.120440e-01 5.241820e+00 -1.645416e+01 1.368317e+00 0 0 -1.990667e-07 -3.804601e-07 1.099813e-06 -5.800000e-05 0 0 0 5.364543e+00 -3.824895e+01 -8.096281e+01 1.138020e+02 -2.862350e+01 1.260694e+02 5.513213e-07 -5.757700e-07 -2.079756e-07 0 0 0 1.371407e+01 -4.455575e+01 1.092128e+02 -1.010175e+02 -2.961745e+01 -1.209340e+02 1.169476e-07 -8.191849e-08 8.930906e-08 2.884130e-01 -1.365059e+00 6.864750e-03 0 0 3.429756e-08 
0 0 0 -5.243400e-01 -1.993636e+00 -1.812766e+01 -2.385131e+00 1.551221e+01 6.383238e-01 7.209852e+00 -1.758480e+01 1.487050e+00 0 1.173309e-08 -8.618738e-08 -9.408990e-01 1.418596e+01 2.306330e-01 5.692390e+00 -1.543288e+01 1.274824e+00 0 0 -8.027542e-07 -1.559037e-07 2.805099e-07 6.386839e-05 0 0 0 9.857305e+00 -4.207216e+01 -7.459485e+01 1.109718e+02 -2.452490e+01 1.247587e+02 NaN NaN -5.996398e-07 0 0 0 1.900944e+01 -5.276713e+01 1.134983e+02 -9.810253e+01 -2.320371e+01 -1.208526e+02 -1.741802e-07 -3.885668e-07 5.636176e-07 3.287916e-01 -1.306317e+00 7.482538e-03 0 0 9.332326e-07 
0 0 0 -1.518207e-01 -1.516552e+00 -1.901157e+01 -2.504782e+00 1.432345e+01 6.201046e-01 6.731719e+00 -1.672010e+01 1.240500e+00 0 2.327622e-08 3.269079e-08 -1.293899e+00 1.289126e+01 2.886786e-01 5.574465e+00 -1.424642e+01 1.063086e+00 0 0 NaN -1.264445e-07 8.547735e-08 -5.000275e-06 0 0 0 2.220084e+01 -3.964815e+01 -5.459825e+01 1.167505e+02 -2.460594e+01 1.321874e+02 NaN NaN NaN 0 0 0 1.103621e+01 -5.776474e+01 1.040209e+02 -9.978690e+01 -2.056317e+01 -1.274691e+02 -2.407778e-07 NaN NaN 1.602066e-01 -3.193339e-01 8.977155e-04 0 0 2.022106e-07 
0 0 0 -6.649614e-02 -1.173944e+00 -1.934546e+01 -2.880882e+00 1.420130e+01 7.074739e-01 7.445000e+00 -1.811701e+01 1.449150e+00 0 8.852367e-09 -1.593951e-07 -1.167539e+00 1.123019e+01 2.274137e-01 5.085749e+00 -1.318811e+01 8.998260e-01 0 0 NaN -1.315216e-07 4.285187e-07 -3.900000e-05 0 0 0 3.411390e+01 -3.440812e+01 -3.521196e+01 1.172669e+02 -2.019810e+01 1.366979e+02 -4.661693e-08 -1.273816e-07 NaN 0 0 0 -4.856855e+00 -6.107345e+01 8.660687e+01 -9.938260e+01 -1.371525e+01 -1.388311e+02 NaN NaN NaN 2.800466e-01 3.445456e-01 -1.686000e-03 0 0 7.280294e-07 
0 0 0 9.368100e-02 -8.992290e-01 -1.947795e+01 -3.334000e+00 1.384310e+01 7.985960e-01 8.171770e+00 -1.813190e+01 1.539150e+00 0 NaN NaN -1.635827e+00 1.058180e+01 3.006512e-01 5.891270e+00 -1.281709e+01 9.518550e-01 0 0 2.018491e-08 -1.147973e-07 1.899004e-07 1.260000e-04 0 0 0 4.215860e+01 -2.409910e+01 -1.801550e+01 1.146760e+02 -1.729951e+01 1.360830e+02 -6.741573e-08 NaN 4.618576e-08 0 0 0 -2.228378e+01 -5.548470e+01 6.702678e+01 -1.036320e+02 -8.383337e+00 -1.631784e+02 NaN 4.947085e-08 -1.412631e-07 5.531860e-01 6.224770e-01 -6.007477e-03 0 0 NaN 
0 0 0 3.019750e-01 -1.328726e-01 -1.915567e+01 -3.351910e+00 1.234103e+01 7.167029e-01 8.147080e+00 -1.722610e+01 1.446366e+00 0 1.600910e-08 NaN -1.359353e+00 9.213119e+00 2.170657e-01 5.297170e+00 -1.180577e+01 8.115063e-01 0 0 -2.928128e-07 -2.333364e-07 -6.574700e-08 -1.710000e-04 0 0 0 4.625750e+01 -1.474764e+01 -6.545643e+00 1.072379e+02 -1.574734e+01 1.267194e+02 NaN -7.285702e-08 2.048932e-08 0 0 0 -3.607347e+01 -4.653560e+01 4.982162e+01 -1.046800e+02 -3.360809e+00 1.702120e+02 -4.059159e-08 4.736610e-08 NaN 6.933920e-01 9.650479e-01 -1.169701e-02 0 0 NaN 
0 0 0 2.248581e-01 -2.635000e-01 -1.935440e+01 -3.348851e+00 1.272560e+01 7.366323e-01 7.814467e+00 -1.716075e+01 1.347014e+00 0 NaN -2.574270e-07 -1.877130e+00 9.956090e+00 3.245727e-01 6.286240e+00 -1.258610e+01 9.687602e-01 0 0 NaN -2.213461e-06 8.512995e-06 -1.500000e-05 0 0 0 4.762275e+01 -4.073694e+00 3.870591e+00 9.913330e+01 -1.655160e+01 1.109755e+02 -1.600000e-07 -2.675448e-07 6.660267e-09 0 0 0 -3.996688e+01 -3.592750e+01 4.124796e+01 -1.050409e+02 -3.273535e-01 1.544831e+02 -4.504070e-08 -8.274900e-08 NaN 4.686457e-01 8.378541e-01 -6.876000e-03 0 0 6.394436e-07 
0 0 0 4.120107e-01 -2.199586e-01 -1.971848e+01 -3.821414e+00 1.247647e+01 8.300965e-01 8.516069e+00 -1.699223e+01 1.397664e+00 0 1.129749e-08 NaN -2.073322e+00 9.655425e+00 3.480563e-01 6.116612e+00 -1.233098e+01 8.706976e-01 0 0 NaN NaN NaN 1.000000e-06 0 0 0 4.545812e+01 5.029471e+00 1.284423e+01 9.241927e+01 -1.724057e+01 9.605715e+01 NaN NaN -9.322148e-09 0 0 0 -4.022030e+01 -2.729718e+01 3.580597e+01 -1.042495e+02 2.384340e+00 1.385822e+02 1.530442e-07 -4.689523e-08 5.966010e-09 2.538370e-01 1.191818e+00 -5.295000e-03 0 0 NaN 
0 0 0 7.745442e-01 7.466383e-01 -1.926454e+01 -3.501152e+00 1.189787e+01 7.230092e-01 8.072358e+00 -1.807611e+01 1.432801e+00 0 1.333143e-08 NaN -1.594288e+00 8.134351e+00 2.261817e-01 5.330260e+00 -1.152561e+01 7.502646e-01 0 0 4.234725e-07 2.117582e-22 NaN 4.800000e-05 0 0 0 4.278877e+01 1.013818e+01 1.875936e+01 8.662766e+01 -1.731942e+01 8.277063e+01 NaN NaN 1.926927e-08 0 0 0 -3.884690e+01 -1.837424e+01 2.992862e+01 -1.029789e+02 9.923977e-01 1.430262e+02 -1.363437e-07 1.632512e-07 -5.555400e-07 2.916630e-01 1.523328e+00 -7.770985e-03 0 0 NaN 
0 0 0 1.006430e+00 1.578590e+00 -1.894780e+01 -3.583680e+00 9.490940e+00 5.916680e-01 8.303650e+00 -1.581520e+01 NaN 0 NaN 6.813012e-09 -1.954920e+00 6.618790e+00 2.254130e-01 6.164200e+00 -1.035860e+01 7.605470e-01 0 0 NaN -1.337419e-06 4.869410e-06 -5.800000e-05 0 0 0 4.022330e+01 1.296720e+01 2.285397e+01 8.502170e+01 -2.001910e+01 8.058650e+01 -4.881317e-08 -1.276864e-08 5.571848e-08 0 0 0 -3.684606e+01 -1.406240e+01 2.733390e+01 -1.041550e+02 1.167730e+00 1.455943e+02 NaN NaN NaN 2.425960e-01 1.797700e+00 -7.609000e-03 0 0 2.330521e-07 
0 0 0 9.584507e-01 1.263230e+00 -1.876420e+01 -3.812798e+00 1.081540e+01 7.164029e-01 8.838355e+00 -1.771830e+01 1.499488e+00 0 1.252556e-08 -3.085964e-08 -1.929836e+00 7.441160e+00 2.497751e-01 6.009169e+00 -1.164400e+01 8.283903e-01 0 0 NaN NaN 0 5.100000e-05 0 0 0 3.878350e+01 1.344658e+01 2.424563e+01 8.637076e+01 -2.242386e+01 8.426055e+01 -5.021548e-08 1.096233e-07 -1.671008e-08 0 0 0 -3.603185e+01 -1.392547e+01 2.787883e+01 -1.048448e+02 2.292224e+00 1.436123e+02 2.212258e-08 NaN NaN 2.001504e-01 1.852675e+00 -6.467871e-03 0 0 3.999381e-07 
0 0 0 9.815956e-01 1.784860e+00 -1.795670e+01 -3.289698e+00 1.019300e+01 5.825299e-01 8.063760e+00 -1.755450e+01 1.303637e+00 0 1.090905e-08 7.368715e-08 -1.396290e+00 6.571790e+00 1.598473e-01 5.271240e+00 -1.085680e+01 7.327391e-01 0 0 1.637723e-07 0 -3.700000e-05 -2.500000e-05 0 0 0 4.010955e+01 1.033090e+01 2.031056e+01 8.879790e+01 -1.992570e+01 8.892970e+01 NaN 1.332504e-07 1.673168e-08 0 0 0 -3.780654e+01 -1.682795e+01 2.922587e+01 -1.036190e+02 6.150579e+00 1.463326e+02 -1.115436e-08 -4.374392e-08 -3.919194e-08 2.495070e-01 2.299620e+00 -1.000441e-02 0 0 NaN 
0 0 0 1.175447e+00 2.216760e+00 -1.783761e+01 -3.642695e+00 9.087154e+00 5.770666e-01 8.835200e+00 -1.703330e+01 1.383183e+00 0 1.351455e-08 9.430317e-08 -1.919466e+00 5.517660e+00 1.852694e-01 6.609031e+00 -9.949400e+00 8.133785e-01 0 0 NaN -9.389209e-06 -1.304033e-05 -6.658360e-05 0 0 0 4.330308e+01 4.485846e+00 1.306128e+01 9.079280e+01 -1.197890e+01 9.328560e+01 -7.901797e-08 NaN -1.524571e-08 0 0 0 -3.936909e+01 -2.182601e+01 3.219943e+01 -1.048713e+02 6.953461e+00 1.471153e+02 -4.630472e-08 4.393207e-08 -1.723360e-08 1.679500e-01 2.465280e+00 -7.235268e-03 0 0 NaN 
